<svg width="18" height="18" viewBox="0 0 18 18" fill="none" xmlns="http://www.w3.org/2000/svg">
<path d="M6.65394 1.58646C7.5321 -0.528821 10.4679 -0.52882 11.3461 1.58646L11.9577 3.05983C12.3174 3.9261 13.107 4.52663 14.0227 4.63041L15.7297 4.82385C17.8853 5.06813 18.7756 7.7755 17.2013 9.29884L15.752 10.7012C15.1148 11.3177 14.8333 12.2258 15.0069 13.1045L15.3568 14.8758C15.7997 17.118 13.3977 18.8109 11.5018 17.5927L10.3571 16.8572C9.52764 16.3242 8.47236 16.3242 7.64291 16.8572L6.49819 17.5927C4.60234 18.8109 2.20031 17.118 2.64323 14.8758L2.99315 13.1045C3.16673 12.2258 2.88518 11.3177 2.24798 10.7012L0.798712 9.29884C-0.775619 7.7755 0.114716 5.06813 2.27034 4.82385L3.97726 4.63041C4.89305 4.52663 5.68263 3.9261 6.04226 3.05983L6.65394 1.58646Z" fill="#C98400"/>
</svg>
